<?xml version="1.0" encoding="UTF-8" standalone="no"?>
<!-- Created with Inkscape (http://www.inkscape.org/) -->
<svg
   xmlns:svg="http://www.w3.org/2000/svg"
   xmlns="http://www.w3.org/2000/svg"
   xmlns:xlink="http://www.w3.org/1999/xlink"
   version="1.0"
   width="510.70734"
   height="447.91541"
   id="svg2">
  <defs
     id="defs4">
    <linearGradient
       x1="73.288841"
       y1="255.42706"
       x2="147.04346"
       y2="255.42706"
       id="linearGradient589"
       xlink:href="#linearGradient585"
       gradientUnits="userSpaceOnUse"
       gradientTransform="scale(2.1950053,0.4555798)" />
    <linearGradient
       x1="132.24107"
       y1="259.44821"
       x2="114.92293"
       y2="353.05176"
       id="linearGradient584"
       xlink:href="#linearGradient585"
       gradientUnits="userSpaceOnUse"
       gradientTransform="scale(1.5608154,0.6406907)" />
    <linearGradient
       x1="118.03407"
       y1="250.64302"
       x2="111.23201"
       y2="259.05283"
       id="linearGradient582"
       xlink:href="#linearGradient579"
       gradientUnits="userSpaceOnUse"
       gradientTransform="scale(1.7811945,0.561421)" />
    <linearGradient
       id="linearGradient579">
      <stop
         id="stop580"
         style="stop-color:#000000;stop-opacity:0.408333"
         offset="0" />
      <stop
         id="stop581"
         style="stop-color:#000000;stop-opacity:0"
         offset="1" />
    </linearGradient>
    <linearGradient
       id="linearGradient585">
      <stop
         id="stop586"
         style="stop-color:#ffffff;stop-opacity:0.175"
         offset="0" />
      <stop
         id="stop587"
         style="stop-color:#ffffff;stop-opacity:0.375"
         offset="1" />
    </linearGradient>
    <linearGradient
       x1="73.288841"
       y1="255.42706"
       x2="147.04346"
       y2="255.42706"
       id="linearGradient5245"
       xlink:href="#linearGradient585"
       gradientUnits="userSpaceOnUse"
       gradientTransform="matrix(2.1950053,0,0,0.4555798,135.50527,263.71614)" />
    <linearGradient
       x1="132.24107"
       y1="259.44821"
       x2="114.92293"
       y2="353.05176"
       id="linearGradient5248"
       xlink:href="#linearGradient585"
       gradientUnits="userSpaceOnUse"
       gradientTransform="matrix(1.5608154,0,0,0.6406907,135.50527,263.71614)" />
  </defs>
  <g
     transform="translate(-108.81523,-218.09192)"
     id="layer1">
    <g
       transform="matrix(-0.2012582,-0.2988782,-0.2988782,0.2012582,699.90927,389.70432)"
       id="g5148">
      <g
         transform="translate(-709.70704,579.09653)"
         id="g5150"
         style="fill:#000000;fill-opacity:0.99166697;fill-rule:nonzero">
        <path
           d="M 887.51006,84.64715 C 903.26131,92.22965 921.70881,97.11465 945.01006,97.14715 C 926.22381,110.11465 895.65506,100.66965 887.51006,84.64715"
           id="path5152"
           style="fill:#000000;fill-opacity:0.99166697;fill-rule:nonzero;stroke:none" />
        <path
           d="M 887.51006,104.64715 C 900.17006,103.6634 914.28006,112.03715 931.26006,110.89715 C 918.90131,123.3559 895.70131,114.3659 887.51006,104.64715"
           id="path5154"
           style="fill:#000000;fill-opacity:0.99166697;fill-rule:nonzero;stroke:none" />
        <path
           d="M 842.51006,119.64715 C 852.64881,117.85465 864.30506,125.34215 877.51006,124.64715 C 868.19381,136.07965 848.18006,129.3034 842.51006,119.64715"
           id="path5156"
           style="fill:#000000;fill-opacity:0.99166697;fill-rule:nonzero;stroke:none" />
        <path
           d="M 1116.2601,239.64715 C 1109.5201,246.0209 1098.7476,243.9684 1090.0101,245.89715 C 1084.0163,247.21965 1078.5013,250.57465 1072.5101,250.89715 C 1056.8001,251.74215 1043.1113,240.5684 1028.7601,237.14715 C 1022.8501,235.73715 1016.2776,236.9209 1010.0101,235.89715 C 977.73256,230.6259 950.53381,213.7434 932.51006,199.64715 C 906.76256,203.9134 894.34631,188.92715 876.26006,180.89715 C 849.34631,168.9459 819.24881,176.8584 791.26006,164.64715 C 788.28756,165.01465 792.64881,168.0284 793.76006,168.39715 C 777.65756,160.66715 740.68131,128.6934 738.76006,98.39715 C 736.54006,63.38965 760.23506,54.69965 795.01006,53.39715 C 800.10881,-13.16535 864.67131,-40.48785 941.26006,-35.35285 C 977.20256,-32.94285 1010.0738,-16.3291 1042.5101,-4.10285 C 1080.3501,10.1584 1122.5788,26.88465 1166.2601,20.89715 C 1162.7101,27.34715 1153.3638,27.99965 1147.5101,32.14715 C 1219.5401,51.4934 1312.9988,46.9609 1402.5101,50.89715 C 1509.2951,55.59215 1619.0851,61.51465 1688.7601,22.14715 C 1678.3576,32.38715 1674.4363,48.6959 1663.7601,59.64715 C 1647.7188,76.1009 1602.2126,93.85465 1575.0101,102.14715 C 1531.2638,115.48215 1489.8363,118.5384 1442.5101,120.89715 C 1331.9288,126.4059 1207.1338,98.71465 1125.0101,70.89715 C 1275.1051,121.21465 1560.2888,147.99465 1670.0101,39.64715 C 1590.6926,73.76965 1475.6988,59.1634 1376.2601,54.64715 C 1321.8851,52.17715 1265.6138,50.8784 1213.7601,44.64715 C 1160.9563,38.3009 1139.7463,28.35465 1103.7601,42.14715 C 1080.9676,50.88215 1059.4226,61.93965 1027.5101,58.39715 C 1002.0738,55.57215 984.68756,43.3559 962.51006,34.64715 C 994.95881,44.5509 1051.9313,57.91215 1095.0101,45.89715 C 1055.8826,44.6084 1027.3776,32.6959 998.76006,20.89715 C 1039.5401,33.43215 1105.4126,42.32715 1152.5101,25.89715 C 1068.2988,25.2209 1000.8901,-30.87035 901.26006,-25.35285 C 841.90131,-22.06535 778.16631,13.2309 807.51006,83.39715 C 807.86131,85.6309 806.32881,85.96215 806.26006,84.64715 C 804.11506,74.7084 799.05006,67.6909 798.76006,55.89715 C 769.28381,59.24715 734.98756,67.9734 750.01006,105.89715 C 753.10506,113.70965 762.38881,123.0209 768.76006,132.14715 C 784.79631,155.1184 780.71131,163.72965 811.26006,167.14715 C 832.38256,169.50965 853.94381,166.61465 871.26006,173.39715 C 890.79506,181.04715 896.97756,195.6259 921.26006,189.64715 C 902.10006,187.30465 887.34131,171.6584 871.26006,162.14715 C 854.35131,152.14465 833.05381,146.6509 830.01006,122.14715 C 837.79381,137.69715 849.17256,149.64965 865.01006,157.14715 C 865.20756,154.4084 860.20256,146.1509 857.51006,142.14715 C 866.03506,145.30215 870.02256,156.7109 878.76006,163.39715 C 888.06881,170.51965 900.53256,174.4009 910.01006,180.89715 C 905.01506,167.96965 887.61756,156.62715 880.01006,142.14715 C 922.33756,177.73465 956.97006,221.0184 1021.2601,234.64715 C 981.04006,205.2834 936.11131,169.79715 900.01006,132.14715 C 923.28131,151.5109 948.70631,173.60715 977.51006,194.64715 C 1007.6113,216.63465 1040.9738,241.3109 1090.0101,242.14715 C 1049.5726,228.56465 1025.0638,198.0609 996.26006,172.14715 C 976.36256,154.24465 951.65631,141.5409 932.51006,122.14715 C 990.15131,160.7559 1044.2288,213.7609 1135.0101,223.39715 C 1062.4788,193.01215 1019.9663,132.60715 952.51006,97.14715 C 996.65631,116.28465 1031.5751,151.19965 1076.2601,175.89715 C 1132.7138,207.09715 1207.7401,228.8859 1296.2601,219.64715 C 1240.6151,202.75215 1186.9026,188.76965 1137.5101,167.14715 C 1088.7663,145.8084 1044.7051,118.8084 1000.0101,94.64715 C 1086.5001,133.7234 1186.7901,197.85215 1306.2601,204.64715 C 1348.2701,207.0359 1368.0063,191.60965 1403.7601,185.89715 C 1311.4726,169.0709 1219.1001,147.55215 1141.2601,115.89715 C 1119.0063,106.84715 1096.2576,98.16965 1073.7601,87.14715 C 1072.2088,86.3859 1064.6388,82.2109 1070.0101,84.64715 C 1164.7513,126.57465 1279.2176,163.7059 1410.0101,169.64715 C 1493.5351,173.4409 1541.9151,142.58965 1608.7601,127.14715 C 1549.1951,123.28715 1481.1963,135.98465 1425.0101,124.64715 C 1487.5101,132.36215 1558.2976,117.6234 1625.0101,122.14715 C 1556.8888,148.96965 1494.6263,187.1009 1395.0101,178.39715 C 1403.6351,181.02215 1413.6251,182.28215 1423.7601,183.39715 C 1380.4063,193.4559 1347.7276,220.5884 1290.0101,212.14715 C 1294.3876,215.6859 1301.8576,216.1334 1307.5101,218.39715 C 1228.9263,246.4734 1116.9326,215.26215 1063.7601,175.89715 C 1089.8026,199.4384 1130.6176,219.03715 1175.0101,228.39715 C 1164.5126,232.3034 1156.1501,227.1584 1146.2601,227.14715 C 1138.3538,227.13715 1131.6338,231.77215 1123.7601,232.14715 C 1102.5451,233.1559 1077.3413,220.61965 1058.7601,212.14715 C 1038.4101,202.8684 1020.7263,190.3159 1006.2601,179.64715 C 1031.6513,205.92465 1065.6326,234.4409 1116.2601,239.64715"
           id="path5158"
           style="fill:#000000;fill-opacity:0.99166697;fill-rule:nonzero;stroke:none" />
        <path
           d="M 928.76006,49.64715 C 960.13256,61.5659 1022.6876,78.25465 1062.5101,59.64715 C 1026.9588,88.4084 957.91756,73.1284 928.76006,49.64715"
           id="path5160"
           style="fill:#000000;fill-opacity:0.99166697;fill-rule:nonzero;stroke:none" />
        <path
           d="M 890.01006,65.89715 C 913.81631,75.8334 960.77631,83.97715 997.51006,77.14715 C 965.62381,94.53715 911.40131,87.1434 890.01006,65.89715"
           id="path5162"
           style="fill:#000000;fill-opacity:0.99166697;fill-rule:nonzero;stroke:none" />
        <path
           d="M 842.51006,98.39715 C 857.95756,105.4534 877.77381,118.9634 903.76006,119.64715 C 877.30506,131.6559 852.92881,114.3509 842.51006,98.39715"
           id="path5164"
           style="fill:#000000;fill-opacity:0.99166697;fill-rule:nonzero;stroke:none" />
      </g>
      <path
         d="M 349.44779,816.25384 C 333.88754,812.06051 315.90095,804.35638 302.10428,795.97535 C 285.87404,786.11602 244.22446,754.76722 216.0303,731.18925 C 203.57891,720.77646 192.70341,712.25695 191.8626,712.25695 C 185.69729,712.25695 248.59804,767.47236 297.26515,804.78119 L 303.31901,809.42211 L 296.24794,808.11477 C 284.74582,805.98822 253.97383,789.97058 237.32811,777.44547 C 228.8123,771.03775 210.90123,756.02181 197.52567,744.07676 C 184.1501,732.13171 172.70756,722.35848 172.09777,722.35848 C 169.1616,722.35848 171.99067,726.67337 183.22379,739.32781 C 189.95288,746.90832 195.01722,753.55195 194.47782,754.09135 C 191.89828,756.6709 168.64614,741.29526 160.02453,731.30888 C 149.59749,719.23123 144.90727,716.98437 149.77582,726.39909 C 151.68457,730.09019 152.06598,732.46001 150.75131,732.46001 C 147.42467,732.46001 128.5806,714.11137 125.20677,707.58712 C 121.73385,700.8712 119.41801,701.68413 121.24833,708.97671 C 123.31577,717.21408 132.18491,725.97275 146.42236,733.83733 C 153.8226,737.92507 165.33217,745.10754 171.99918,749.79826 C 178.66619,754.48905 188.6667,760.79733 194.22254,763.81682 L 204.32406,769.30677 L 196.81925,768.19452 C 192.69163,767.58287 183.60026,763.72009 176.6162,759.61062 C 159.45395,749.51225 156.32087,748.76185 121.88087,746.50216 C 105.4275,745.42263 88.927003,743.26971 85.213136,741.71797 C 80.731898,739.84557 75.572018,734.58636 69.872435,726.08186 C 65.148921,719.03379 56.918501,707.30466 51.582653,700.01724 C 26.932082,666.35073 35.850093,645.77892 78.553847,637.80099 L 87.48996,636.1315 L 91.322115,650.12086 C 93.429839,657.81501 95.852649,664.54179 96.706187,665.06929 C 99.054428,666.52058 98.593738,662.51577 94.984019,650.09881 C 90.276122,633.90417 91.937621,612.45645 98.808335,600.73246 C 109.54957,582.40389 131.8301,567.51226 160.09639,559.7692 C 166.64291,557.97591 182.98998,555.96971 196.42317,555.31099 C 235.92303,553.37406 262.43315,558.56018 338.26231,583.05848 C 378.65255,596.10739 415.10958,604.94912 430.19571,605.35443 L 436.65915,605.52816 L 430.59823,607.34364 C 427.26473,608.34212 415.25438,610.24177 403.90857,611.56505 C 378.86747,614.48564 342.47929,611.73215 310.82537,604.52154 C 299.39754,601.91827 290.85648,600.59744 291.84529,601.58626 C 295.39218,605.13309 339.36245,619.43093 355.14772,622.17024 C 364.00631,623.70751 371.67529,625.38646 372.19006,625.90124 C 372.70485,626.41599 366.42591,627.4443 358.23688,628.18638 C 336.94188,630.11604 298.2471,625.1732 266.03731,616.40879 C 259.97755,614.75994 254.63701,613.79339 254.16943,614.26099 C 253.70183,614.72861 258.65982,617.52701 265.18717,620.47973 C 316.44215,643.66558 334.39369,644.5194 383.89492,626.12612 C 416.14707,614.14205 426.61011,613.4248 473.02464,620.01591 C 525.1511,627.4181 543.85658,629.03576 617.47645,632.508 C 653.58941,634.2112 707.22851,636.94006 736.67445,638.57202 C 805.23262,642.37163 844.90488,642.32959 880.35225,638.41967 C 904.7686,635.72655 936.62611,629.17251 949.64297,624.16458 C 957.33474,621.2054 950.65836,627.25963 934.09141,638.26692 C 897.9567,662.27533 852.53014,677.67565 789.20239,687.38676 C 759.74755,691.90355 646.26679,692.53498 608.38508,688.39287 C 542.96083,681.23917 472.82897,667.44756 426.55762,652.63611 C 423.34542,651.60786 423.15296,651.75902 425.61893,653.37328 C 430.47164,656.55003 474.1926,669.06604 507.45886,676.80171 C 565.71442,690.34832 625.86728,698.63188 685.15667,701.27213 C 701.82419,702.01431 716.37586,703.35311 717.49372,704.24713 C 719.79713,706.08935 763.59415,710.53689 767.47912,709.32309 C 768.87076,708.88832 797.73817,708.02046 831.62879,707.39459 L 893.2481,706.25659 L 876.0755,711.34384 C 866.63058,714.14178 846.62956,720.42586 831.62879,725.30843 C 767.5114,746.1779 736.25538,750.71593 684.14652,746.72132 C 578.62243,738.63202 478.56007,713.45797 375.54492,669.08241 C 366.37778,665.13348 358.8774,662.65838 358.8774,663.58215 C 358.8774,665.72545 401.42884,684.35309 442.27713,700.09167 C 495.66935,720.66332 575.6601,742.63293 651.82164,757.64329 C 690.38593,765.24378 689.61975,764.71702 670.00438,770.14405 C 627.6539,781.86121 617.68681,783.44327 594.1829,782.17899 C 553.63348,779.99784 516.89839,771.73385 466.41889,753.4371 C 436.28246,742.51391 416.85436,733.92089 361.90786,707.21221 C 281.55079,668.15186 273.30328,665.43715 328.57282,696.23973 C 403.61061,738.05944 448.25493,757.72053 513.43074,777.64989 C 533.43176,783.76575 557.06933,791.09471 565.95867,793.93645 L 582.12111,799.10318 L 538.68455,798.20439 C 492.7138,797.25317 475.68249,794.84549 439.21958,784.14329 C 392.54871,770.44499 355.99261,750.2736 285.13627,699.12131 C 276.34638,692.77578 260.15901,683.50062 250.81298,679.45455 C 240.82366,675.13005 244.25776,677.92336 265.94337,691.76189 C 274.27713,697.08002 300.16099,716.74314 323.46309,735.45769 C 363.77836,767.83609 381.62551,780.68063 404.33427,793.66074 L 414.43579,799.43465 L 405.34442,798.20291 C 380.93261,794.89517 338.4422,777.83329 308.41832,759.28255 C 300.05781,754.11687 278.03475,739.15008 259.47807,726.02295 C 240.9214,712.89577 225.12747,702.15543 224.38044,702.15543 C 221.09746,702.15543 230.21799,709.98058 255.40568,728.77418 C 270.27217,739.86673 293.33864,759.08007 306.66449,771.47052 C 332.15778,795.17442 345.3699,805.40197 361.70369,814.07671 C 370.75484,818.88375 371.10029,819.32175 365.7443,819.20017 C 362.5231,819.12701 355.18966,817.80119 349.44779,816.25382 L 349.44779,816.25384 z M 164.98367,706.73564 C 167.73102,704.81019 171.51948,703.49509 173.40242,703.81327 C 175.28537,704.13139 180.74021,703.30547 185.52425,701.97776 L 194.22254,699.5637 L 179.80055,695.94766 C 171.86843,693.95877 158.83637,689.03694 150.84036,685.01023 C 142.84438,680.98354 135.3222,678.01559 134.12442,678.41486 C 131.13817,679.41027 145.11599,693.07181 154.36068,698.19327 C 159.86981,701.24528 160.53872,702.05427 156.84689,701.20015 C 154.06897,700.55747 147.35491,699.45917 141.92674,698.7595 C 130.18464,697.24599 129.68381,700.5785 140.7606,706.51905 C 149.45955,711.18439 158.52061,711.26539 164.98365,706.7357 L 164.98367,706.73564 z M 217.58884,694.00317 C 223.76128,690.69975 222.16715,688.02742 213.92051,687.85369 C 209.75363,687.76587 199.98041,686.54465 192.20223,685.13977 C 184.42406,683.73485 177.67189,682.90697 177.19743,683.29994 C 175.93875,684.34246 183.1767,689.79953 190.18193,693.08969 C 197.36078,696.4614 212.07892,696.95195 217.58886,694.00313 L 217.58884,694.00317 z M 231.31283,679.05534 C 236.54482,676.31399 236.49233,676.27055 226.52435,675.09267 C 217.28616,674.00106 192.88257,668.38779 181.3993,664.71313 C 177.10334,663.3385 176.88589,663.56178 179.08766,667.08738 C 187.81593,681.06348 215.41089,687.38716 231.31285,679.05528 L 231.31283,679.05534 z M 280.14223,660.37233 L 288.56341,656.69856 L 259.57573,656.63111 C 230.10035,656.56248 210.77902,653.93826 191.69715,647.41189 C 171.11522,640.37246 183.24291,651.58376 205.12871,659.82854 C 226.36014,667.82679 262.45476,668.08844 280.14223,660.37231 L 280.14223,660.37233 z M 331.15888,650.69141 C 341.63614,647.51533 352.81649,641.57276 352.81649,639.17999 C 352.81649,638.35771 348.95265,639.11627 344.23019,640.86572 C 322.20553,649.02478 275.60836,645.88246 237.66037,633.67907 C 219.6465,627.88606 215.24403,627.78351 224.02204,633.36119 C 254.74985,652.88601 299.85219,660.18171 331.1589,650.69139 L 331.15888,650.69141 z"
         id="path5166"
         style="opacity:1;fill:#ffffff;fill-opacity:0.99166697;fill-rule:nonzero;stroke:none;stroke-width:2;stroke-linecap:butt;stroke-linejoin:miter;stroke-miterlimit:4;stroke-dasharray:none;stroke-dashoffset:0;stroke-opacity:1" />
    </g>
    <path
       d="M 229.36363,465.61879 C 232.27715,452.64664 235.19067,363.28297 261.41238,364.72433 C 354.64511,367.60703 450.79138,271.03661 520.71591,485.79768 C 736.31663,586.69216 535.70724,667.76806 365.02455,660.56132 C 196.36694,653.50034 52.367111,531.92088 229.36363,465.61879 z"
       id="path575"
       style="font-size:12px;fill:#375975;fill-opacity:0.99166697;fill-rule:evenodd;stroke:#000000;stroke-width:10;stroke-linejoin:round;stroke-dasharray:none" />
    <path
       d="M 265.78267,422.37831 C 278.89353,452.64665 329.88019,523.27276 415.82911,455.52934 C 344.44781,458.41204 313.8558,449.76395 265.78267,422.37831 z"
       id="path583"
       style="fill:url(#linearGradient5248);fill-opacity:1;fill-rule:evenodd;stroke-width:1pt" />
    <path
       d="M 296.37466,363.28298 C 315.31257,371.93108 434.76699,405.08211 447.87785,394.99267 C 462.44547,389.22727 459.53197,386.34457 452.24815,384.90322 C 440.59405,392.10997 420.19939,396.43402 296.37466,363.28298 z"
       id="path588"
       style="fill:url(#linearGradient5245);fill-opacity:1;fill-rule:evenodd;stroke-width:1pt" />
    <g
       transform="matrix(0.9831384,0.1828628,-0.1828628,0.9831384,96.310208,-35.645644)"
       id="g5296">
      <g
         transform="matrix(-0.2881072,-0.2163962,-0.2163962,0.2881072,486.25861,308.33339)"
         id="g5137">
        <g
           transform="translate(-709.70704,579.09653)"
           id="g5116"
           style="fill:#000000;fill-opacity:0.99166697;fill-rule:nonzero">
          <path
             d="M 887.51006,84.64715 C 903.26131,92.22965 921.70881,97.11465 945.01006,97.14715 C 926.22381,110.11465 895.65506,100.66965 887.51006,84.64715"
             id="path3449"
             style="fill:#000000;fill-opacity:0.99166697;fill-rule:nonzero;stroke:none" />
          <path
             d="M 887.51006,104.64715 C 900.17006,103.6634 914.28006,112.03715 931.26006,110.89715 C 918.90131,123.3559 895.70131,114.3659 887.51006,104.64715"
             id="path3451"
             style="fill:#000000;fill-opacity:0.99166697;fill-rule:nonzero;stroke:none" />
          <path
             d="M 842.51006,119.64715 C 852.64881,117.85465 864.30506,125.34215 877.51006,124.64715 C 868.19381,136.07965 848.18006,129.3034 842.51006,119.64715"
             id="path3453"
             style="fill:#000000;fill-opacity:0.99166697;fill-rule:nonzero;stroke:none" />
          <path
             d="M 1116.2601,239.64715 C 1109.5201,246.0209 1098.7476,243.9684 1090.0101,245.89715 C 1084.0163,247.21965 1078.5013,250.57465 1072.5101,250.89715 C 1056.8001,251.74215 1043.1113,240.5684 1028.7601,237.14715 C 1022.8501,235.73715 1016.2776,236.9209 1010.0101,235.89715 C 977.73256,230.6259 950.53381,213.7434 932.51006,199.64715 C 906.76256,203.9134 894.34631,188.92715 876.26006,180.89715 C 849.34631,168.9459 819.24881,176.8584 791.26006,164.64715 C 788.28756,165.01465 792.64881,168.0284 793.76006,168.39715 C 777.65756,160.66715 740.68131,128.6934 738.76006,98.39715 C 736.54006,63.38965 760.23506,54.69965 795.01006,53.39715 C 800.10881,-13.16535 864.67131,-40.48785 941.26006,-35.35285 C 977.20256,-32.94285 1010.0738,-16.3291 1042.5101,-4.10285 C 1080.3501,10.1584 1122.5788,26.88465 1166.2601,20.89715 C 1162.7101,27.34715 1153.3638,27.99965 1147.5101,32.14715 C 1219.5401,51.4934 1312.9988,46.9609 1402.5101,50.89715 C 1509.2951,55.59215 1619.0851,61.51465 1688.7601,22.14715 C 1678.3576,32.38715 1674.4363,48.6959 1663.7601,59.64715 C 1647.7188,76.1009 1602.2126,93.85465 1575.0101,102.14715 C 1531.2638,115.48215 1489.8363,118.5384 1442.5101,120.89715 C 1331.9288,126.4059 1207.1338,98.71465 1125.0101,70.89715 C 1275.1051,121.21465 1560.2888,147.99465 1670.0101,39.64715 C 1590.6926,73.76965 1475.6988,59.1634 1376.2601,54.64715 C 1321.8851,52.17715 1265.6138,50.8784 1213.7601,44.64715 C 1160.9563,38.3009 1139.7463,28.35465 1103.7601,42.14715 C 1080.9676,50.88215 1059.4226,61.93965 1027.5101,58.39715 C 1002.0738,55.57215 984.68756,43.3559 962.51006,34.64715 C 994.95881,44.5509 1051.9313,57.91215 1095.0101,45.89715 C 1055.8826,44.6084 1027.3776,32.6959 998.76006,20.89715 C 1039.5401,33.43215 1105.4126,42.32715 1152.5101,25.89715 C 1068.2988,25.2209 1000.8901,-30.87035 901.26006,-25.35285 C 841.90131,-22.06535 778.16631,13.2309 807.51006,83.39715 C 807.86131,85.6309 806.32881,85.96215 806.26006,84.64715 C 804.11506,74.7084 799.05006,67.6909 798.76006,55.89715 C 769.28381,59.24715 734.98756,67.9734 750.01006,105.89715 C 753.10506,113.70965 762.38881,123.0209 768.76006,132.14715 C 784.79631,155.1184 780.71131,163.72965 811.26006,167.14715 C 832.38256,169.50965 853.94381,166.61465 871.26006,173.39715 C 890.79506,181.04715 896.97756,195.6259 921.26006,189.64715 C 902.10006,187.30465 887.34131,171.6584 871.26006,162.14715 C 854.35131,152.14465 833.05381,146.6509 830.01006,122.14715 C 837.79381,137.69715 849.17256,149.64965 865.01006,157.14715 C 865.20756,154.4084 860.20256,146.1509 857.51006,142.14715 C 866.03506,145.30215 870.02256,156.7109 878.76006,163.39715 C 888.06881,170.51965 900.53256,174.4009 910.01006,180.89715 C 905.01506,167.96965 887.61756,156.62715 880.01006,142.14715 C 922.33756,177.73465 956.97006,221.0184 1021.2601,234.64715 C 981.04006,205.2834 936.11131,169.79715 900.01006,132.14715 C 923.28131,151.5109 948.70631,173.60715 977.51006,194.64715 C 1007.6113,216.63465 1040.9738,241.3109 1090.0101,242.14715 C 1049.5726,228.56465 1025.0638,198.0609 996.26006,172.14715 C 976.36256,154.24465 951.65631,141.5409 932.51006,122.14715 C 990.15131,160.7559 1044.2288,213.7609 1135.0101,223.39715 C 1062.4788,193.01215 1019.9663,132.60715 952.51006,97.14715 C 996.65631,116.28465 1031.5751,151.19965 1076.2601,175.89715 C 1132.7138,207.09715 1207.7401,228.8859 1296.2601,219.64715 C 1240.6151,202.75215 1186.9026,188.76965 1137.5101,167.14715 C 1088.7663,145.8084 1044.7051,118.8084 1000.0101,94.64715 C 1086.5001,133.7234 1186.7901,197.85215 1306.2601,204.64715 C 1348.2701,207.0359 1368.0063,191.60965 1403.7601,185.89715 C 1311.4726,169.0709 1219.1001,147.55215 1141.2601,115.89715 C 1119.0063,106.84715 1096.2576,98.16965 1073.7601,87.14715 C 1072.2088,86.3859 1064.6388,82.2109 1070.0101,84.64715 C 1164.7513,126.57465 1279.2176,163.7059 1410.0101,169.64715 C 1493.5351,173.4409 1541.9151,142.58965 1608.7601,127.14715 C 1549.1951,123.28715 1481.1963,135.98465 1425.0101,124.64715 C 1487.5101,132.36215 1558.2976,117.6234 1625.0101,122.14715 C 1556.8888,148.96965 1494.6263,187.1009 1395.0101,178.39715 C 1403.6351,181.02215 1413.6251,182.28215 1423.7601,183.39715 C 1380.4063,193.4559 1347.7276,220.5884 1290.0101,212.14715 C 1294.3876,215.6859 1301.8576,216.1334 1307.5101,218.39715 C 1228.9263,246.4734 1116.9326,215.26215 1063.7601,175.89715 C 1089.8026,199.4384 1130.6176,219.03715 1175.0101,228.39715 C 1164.5126,232.3034 1156.1501,227.1584 1146.2601,227.14715 C 1138.3538,227.13715 1131.6338,231.77215 1123.7601,232.14715 C 1102.5451,233.1559 1077.3413,220.61965 1058.7601,212.14715 C 1038.4101,202.8684 1020.7263,190.3159 1006.2601,179.64715 C 1031.6513,205.92465 1065.6326,234.4409 1116.2601,239.64715"
             id="path3455"
             style="fill:#000000;fill-opacity:0.99166697;fill-rule:nonzero;stroke:none" />
          <path
             d="M 928.76006,49.64715 C 960.13256,61.5659 1022.6876,78.25465 1062.5101,59.64715 C 1026.9588,88.4084 957.91756,73.1284 928.76006,49.64715"
             id="path3457"
             style="fill:#000000;fill-opacity:0.99166697;fill-rule:nonzero;stroke:none" />
          <path
             d="M 890.01006,65.89715 C 913.81631,75.8334 960.77631,83.97715 997.51006,77.14715 C 965.62381,94.53715 911.40131,87.1434 890.01006,65.89715"
             id="path3459"
             style="fill:#000000;fill-opacity:0.99166697;fill-rule:nonzero;stroke:none" />
          <path
             d="M 842.51006,98.39715 C 857.95756,105.4534 877.77381,118.9634 903.76006,119.64715 C 877.30506,131.6559 852.92881,114.3509 842.51006,98.39715"
             id="path3461"
             style="fill:#000000;fill-opacity:0.99166697;fill-rule:nonzero;stroke:none" />
        </g>
        <path
           d="M 349.44779,816.25384 C 333.88754,812.06051 315.90095,804.35638 302.10428,795.97535 C 285.87404,786.11602 244.22446,754.76722 216.0303,731.18925 C 203.57891,720.77646 192.70341,712.25695 191.8626,712.25695 C 185.69729,712.25695 248.59804,767.47236 297.26515,804.78119 L 303.31901,809.42211 L 296.24794,808.11477 C 284.74582,805.98822 253.97383,789.97058 237.32811,777.44547 C 228.8123,771.03775 210.90123,756.02181 197.52567,744.07676 C 184.1501,732.13171 172.70756,722.35848 172.09777,722.35848 C 169.1616,722.35848 171.99067,726.67337 183.22379,739.32781 C 189.95288,746.90832 195.01722,753.55195 194.47782,754.09135 C 191.89828,756.6709 168.64614,741.29526 160.02453,731.30888 C 149.59749,719.23123 144.90727,716.98437 149.77582,726.39909 C 151.68457,730.09019 152.06598,732.46001 150.75131,732.46001 C 147.42467,732.46001 128.5806,714.11137 125.20677,707.58712 C 121.73385,700.8712 119.41801,701.68413 121.24833,708.97671 C 123.31577,717.21408 132.18491,725.97275 146.42236,733.83733 C 153.8226,737.92507 165.33217,745.10754 171.99918,749.79826 C 178.66619,754.48905 188.6667,760.79733 194.22254,763.81682 L 204.32406,769.30677 L 196.81925,768.19452 C 192.69163,767.58287 183.60026,763.72009 176.6162,759.61062 C 159.45395,749.51225 156.32087,748.76185 121.88087,746.50216 C 105.4275,745.42263 88.927003,743.26971 85.213136,741.71797 C 80.731898,739.84557 75.572018,734.58636 69.872435,726.08186 C 65.148921,719.03379 56.918501,707.30466 51.582653,700.01724 C 26.932082,666.35073 35.850093,645.77892 78.553847,637.80099 L 87.48996,636.1315 L 91.322115,650.12086 C 93.429839,657.81501 95.852649,664.54179 96.706187,665.06929 C 99.054428,666.52058 98.593738,662.51577 94.984019,650.09881 C 90.276122,633.90417 91.937621,612.45645 98.808335,600.73246 C 109.54957,582.40389 131.8301,567.51226 160.09639,559.7692 C 166.64291,557.97591 182.98998,555.96971 196.42317,555.31099 C 235.92303,553.37406 262.43315,558.56018 338.26231,583.05848 C 378.65255,596.10739 415.10958,604.94912 430.19571,605.35443 L 436.65915,605.52816 L 430.59823,607.34364 C 427.26473,608.34212 415.25438,610.24177 403.90857,611.56505 C 378.86747,614.48564 342.47929,611.73215 310.82537,604.52154 C 299.39754,601.91827 290.85648,600.59744 291.84529,601.58626 C 295.39218,605.13309 339.36245,619.43093 355.14772,622.17024 C 364.00631,623.70751 371.67529,625.38646 372.19006,625.90124 C 372.70485,626.41599 366.42591,627.4443 358.23688,628.18638 C 336.94188,630.11604 298.2471,625.1732 266.03731,616.40879 C 259.97755,614.75994 254.63701,613.79339 254.16943,614.26099 C 253.70183,614.72861 258.65982,617.52701 265.18717,620.47973 C 316.44215,643.66558 334.39369,644.5194 383.89492,626.12612 C 416.14707,614.14205 426.61011,613.4248 473.02464,620.01591 C 525.1511,627.4181 543.85658,629.03576 617.47645,632.508 C 653.58941,634.2112 707.22851,636.94006 736.67445,638.57202 C 805.23262,642.37163 844.90488,642.32959 880.35225,638.41967 C 904.7686,635.72655 936.62611,629.17251 949.64297,624.16458 C 957.33474,621.2054 950.65836,627.25963 934.09141,638.26692 C 897.9567,662.27533 852.53014,677.67565 789.20239,687.38676 C 759.74755,691.90355 646.26679,692.53498 608.38508,688.39287 C 542.96083,681.23917 472.82897,667.44756 426.55762,652.63611 C 423.34542,651.60786 423.15296,651.75902 425.61893,653.37328 C 430.47164,656.55003 474.1926,669.06604 507.45886,676.80171 C 565.71442,690.34832 625.86728,698.63188 685.15667,701.27213 C 701.82419,702.01431 716.37586,703.35311 717.49372,704.24713 C 719.79713,706.08935 763.59415,710.53689 767.47912,709.32309 C 768.87076,708.88832 797.73817,708.02046 831.62879,707.39459 L 893.2481,706.25659 L 876.0755,711.34384 C 866.63058,714.14178 846.62956,720.42586 831.62879,725.30843 C 767.5114,746.1779 736.25538,750.71593 684.14652,746.72132 C 578.62243,738.63202 478.56007,713.45797 375.54492,669.08241 C 366.37778,665.13348 358.8774,662.65838 358.8774,663.58215 C 358.8774,665.72545 401.42884,684.35309 442.27713,700.09167 C 495.66935,720.66332 575.6601,742.63293 651.82164,757.64329 C 690.38593,765.24378 689.61975,764.71702 670.00438,770.14405 C 627.6539,781.86121 617.68681,783.44327 594.1829,782.17899 C 553.63348,779.99784 516.89839,771.73385 466.41889,753.4371 C 436.28246,742.51391 416.85436,733.92089 361.90786,707.21221 C 281.55079,668.15186 273.30328,665.43715 328.57282,696.23973 C 403.61061,738.05944 448.25493,757.72053 513.43074,777.64989 C 533.43176,783.76575 557.06933,791.09471 565.95867,793.93645 L 582.12111,799.10318 L 538.68455,798.20439 C 492.7138,797.25317 475.68249,794.84549 439.21958,784.14329 C 392.54871,770.44499 355.99261,750.2736 285.13627,699.12131 C 276.34638,692.77578 260.15901,683.50062 250.81298,679.45455 C 240.82366,675.13005 244.25776,677.92336 265.94337,691.76189 C 274.27713,697.08002 300.16099,716.74314 323.46309,735.45769 C 363.77836,767.83609 381.62551,780.68063 404.33427,793.66074 L 414.43579,799.43465 L 405.34442,798.20291 C 380.93261,794.89517 338.4422,777.83329 308.41832,759.28255 C 300.05781,754.11687 278.03475,739.15008 259.47807,726.02295 C 240.9214,712.89577 225.12747,702.15543 224.38044,702.15543 C 221.09746,702.15543 230.21799,709.98058 255.40568,728.77418 C 270.27217,739.86673 293.33864,759.08007 306.66449,771.47052 C 332.15778,795.17442 345.3699,805.40197 361.70369,814.07671 C 370.75484,818.88375 371.10029,819.32175 365.7443,819.20017 C 362.5231,819.12701 355.18966,817.80119 349.44779,816.25382 L 349.44779,816.25384 z M 164.98367,706.73564 C 167.73102,704.81019 171.51948,703.49509 173.40242,703.81327 C 175.28537,704.13139 180.74021,703.30547 185.52425,701.97776 L 194.22254,699.5637 L 179.80055,695.94766 C 171.86843,693.95877 158.83637,689.03694 150.84036,685.01023 C 142.84438,680.98354 135.3222,678.01559 134.12442,678.41486 C 131.13817,679.41027 145.11599,693.07181 154.36068,698.19327 C 159.86981,701.24528 160.53872,702.05427 156.84689,701.20015 C 154.06897,700.55747 147.35491,699.45917 141.92674,698.7595 C 130.18464,697.24599 129.68381,700.5785 140.7606,706.51905 C 149.45955,711.18439 158.52061,711.26539 164.98365,706.7357 L 164.98367,706.73564 z M 217.58884,694.00317 C 223.76128,690.69975 222.16715,688.02742 213.92051,687.85369 C 209.75363,687.76587 199.98041,686.54465 192.20223,685.13977 C 184.42406,683.73485 177.67189,682.90697 177.19743,683.29994 C 175.93875,684.34246 183.1767,689.79953 190.18193,693.08969 C 197.36078,696.4614 212.07892,696.95195 217.58886,694.00313 L 217.58884,694.00317 z M 231.31283,679.05534 C 236.54482,676.31399 236.49233,676.27055 226.52435,675.09267 C 217.28616,674.00106 192.88257,668.38779 181.3993,664.71313 C 177.10334,663.3385 176.88589,663.56178 179.08766,667.08738 C 187.81593,681.06348 215.41089,687.38716 231.31285,679.05528 L 231.31283,679.05534 z M 280.14223,660.37233 L 288.56341,656.69856 L 259.57573,656.63111 C 230.10035,656.56248 210.77902,653.93826 191.69715,647.41189 C 171.11522,640.37246 183.24291,651.58376 205.12871,659.82854 C 226.36014,667.82679 262.45476,668.08844 280.14223,660.37231 L 280.14223,660.37233 z M 331.15888,650.69141 C 341.63614,647.51533 352.81649,641.57276 352.81649,639.17999 C 352.81649,638.35771 348.95265,639.11627 344.23019,640.86572 C 322.20553,649.02478 275.60836,645.88246 237.66037,633.67907 C 219.6465,627.88606 215.24403,627.78351 224.02204,633.36119 C 254.74985,652.88601 299.85219,660.18171 331.1589,650.69139 L 331.15888,650.69141 z"
           id="path5135"
           style="opacity:1;fill:#ffffff;fill-opacity:0.99166697;fill-rule:nonzero;stroke:none;stroke-width:2;stroke-linecap:butt;stroke-linejoin:miter;stroke-miterlimit:4;stroke-dasharray:none;stroke-dashoffset:0;stroke-opacity:1" />
      </g>
    </g>
    <image
       xlink:href="qrcode.png"
       x="562.57056"
       y="145.15396"
       width="98.836861"
       height="98.836861"
       transform="matrix(0.8390546,0.5440472,-0.5440472,0.8390546,0,0)"
       id="image5209" />
    <g
       id="g5252">
      <path
         d="M 224.99334,494.44578 C 332.79369,562.18922 510.51861,520.39007 517.80241,487.23903 C 527.99975,498.76983 517.80241,530.47952 517.80241,530.47952 C 471.18604,591.0162 245.38801,578.04404 220.62306,534.80356 C 217.70954,523.27276 223.53659,498.76983 224.99334,494.44578 z"
         id="path576"
         style="font-size:12px;fill-rule:evenodd;stroke:#000000;stroke-width:5" />
      <path
         d="M 242.47449,510.30063 C 259.95563,518.94872 313.8558,530.47952 334.25047,531.92088 C 348.81808,542.0103 341.53427,557.86516 335.70724,569.39596 C 296.37467,569.39596 251.21506,559.3065 239.56097,546.33434 C 232.27715,533.36222 235.19067,523.27276 242.47449,510.30063 z"
         id="path590"
         style="font-size:12px;fill:#ffffff;fill-opacity:0.31666703;fill-rule:evenodd;stroke:#000000;stroke-width:1.87833996pt" />
    </g>
  </g>
</svg>
